<?xml version="1.0" encoding="UTF-8"?>
<svg xmlns="http://www.w3.org/2000/svg" viewBox="0 0 530.4 99.7" width="530.4" height="99.7"><path d="M44 39.7C38.7 16.5 27.8 10.3 25 6c-1.6-2.4-3.1-6-3.1-6-.1 2-.4 3.4-2.2 4.9C16.2 8 1.3 20.2.1 46.5-1.1 71 18.1 86.2 20.7 87.8c2 1 4.3 0 5.5-.9 9.2-6.3 21.9-23.3 17.8-47.2" fill="#10aa50"/><path d="M22.7 74.7c-.5 6.1-.8 9.6-2.1 13.1A349.35 349.35 0 0 0 22 99.7h2c.7-6.9 2.2-12.8 2.2-12.8-2.6-1.3-3.4-6.9-3.5-12.2z" fill="#b8c4c2"/><path d="M26.2 86.9h0c-2.6-1.2-3.4-6.9-3.5-12.2.6-7.2.9-16.5.6-26.2-.1-4.6.1-42.5-1.1-48 .5 1.1 1.7 3.6 2.8 5.5 2.8 4.4 13.7 10.5 19 33.7 4 23.9-8.5 40.8-17.8 47.2z" fill="#12924f"/><g fill="#21313c"><path d="M371.7 78.5a5.63 5.63 0 0 1-5.7-5.7 5.63 5.63 0 0 1 5.7-5.7c3.1 0 5.7 2.5 5.7 5.6 0 3.3-2.5 5.8-5.7 5.8m0-10.9c-2.9 0-5.2 2.3-5.2 5.2s2.3 5.2 5.2 5.2 5.2-2.3 5.2-5.2-2.3-5.2-5.2-5.2m1.4 8.8l-1.5-3.2h-1.2v3.2h-.9v-7.2h2.1c1.6 0 2.2.7 2.2 2 0 1.1-.5 1.7-1.4 1.9l1.5 3.3h-.8zm-2.6-3.9h1.2c1 0 1.4-.4 1.4-1.3s-.4-1.2-1.5-1.2h-1.1v2.5zm-83.5.8c1.5 1.2 4.6 1.7 7.3 1.7 3.5 0 7-.7 10.3-3.7 3.4-3.1 5.8-7.9 5.8-15.5 0-7.3-2.8-13.3-8.5-16.7-3.2-2-7.4-2.8-12.2-2.8-1.4 0-2.8.1-3.6.4-.2.1-.7.7-.7 1-.1 1.3-.1 11.2-.1 17.1l.1 15.4c.2.9.6 2.5 1.6 3.1M272.4 33c1.2 0 6 .2 8.2.2 4.1 0 7-.2 14.7-.2 6.5 0 11.9 1.7 15.8 5.1 4.7 4.1 7.2 9.7 7.2 16.6 0 9.8-4.5 15.4-8.9 18.6-4.5 3.3-10.3 5.2-18.5 5.2-4.4 0-11.9-.1-18.3-.2h-.1c-.3-.6.5-2.8 1.1-2.9 1.7-.2 2.2-.3 3-.6 1.3-.5 1.6-1.2 1.8-3.6.2-4.5.1-9.9.1-15.9l-.1-15.5c-.2-2.2-1.2-2.8-3.1-3.3-1-.2-2.3-.4-4.1-.7-.3-.4.8-2.3 1.2-2.8m63.9 3.7c-.3.1-.7.8-.7 1.2-.1 2.6-.1 9.4-.1 14.1 0 .1.2.4.4.4 1 .1 3.3.1 5.3.1 2.8 0 4.4-.4 5.3-.8 2.3-1.2 3.4-3.7 3.4-6.5 0-6.3-4.4-8.7-10.9-8.7-.5.1-1.7.1-2.7.2m16.7 29c0-6.4-4.7-10-13.3-10-.4 0-3.1-.1-3.7.1-.2.1-.4.2-.4.4l.1 14.8c.1 1.2 1 3 2.1 3.5 1.2.7 3.8.8 5.6.8 5.1-.1 9.6-2.9 9.6-9.6m-29.9-32.6c.7 0 2.6.2 7.6.2l13-.1c5.6 0 13.4 2 13.4 10.4 0 4.1-2.9 7.5-6.7 9.1-.2.1-.2.2 0 .3 5.4 1.4 10.2 4.7 10.2 11.1 0 6.2-3.9 10.1-9.5 12.6-3.4 1.5-7.7 2-12 2-3.3 0-12.1-.4-17-.3-.5-.2.5-2.5.9-2.9 1.2-.1 2.1-.2 3.3-.5 1.8-.4 2-1 2.2-3.6.1-2.2.1-10.3.1-16V39.7c-.1-2-.8-2.7-2.2-3-1.1-.2-2.9-.4-4.4-.7-.4-.4.7-2.6 1.1-2.9M60.2 78.5c-.1-.2-.3-.8-.2-1.5 0-.5.1-.9.2-1 1.4-.2 2-.4 2.8-.6 1.3-.3 1.8-1 1.9-2.7.2-3.9.2-11.2.1-16.4v-.2c0-.6 0-1.3-.7-1.8-1-.7-2.3-1.2-3.9-1.7-.6-.2-1-.5-.9-.9 0-.4.4-.8 1.2-1 2.1-.2 7.7-1.5 9.9-2.6.1.2.3.5.3 1 0 .2 0 .5-.1.7-.1.7-.1 1.6-.1 2.4 0 .2.3.5.5.5a.76.76 0 0 0 .4-.2c4.2-3.3 7.9-4.4 9.8-4.4 3.1 0 5.6 1.5 7.5 4.6.1.2.3.2.4.2.2 0 .3-.1.4-.2 3.8-2.9 7.6-4.6 10.2-4.6 6 0 9.6 4.5 9.6 12v13.3c0 .4.5 1.3 1.2 1.5.9.4 2.1.6 3.7.9h.1c.1.4-.1 2.1-.4 2.5-.4 0-.9 0-1.6-.1-1.2-.1-3-.2-4.9-.2-4 0-6.1.1-8.1.2-.2-.5-.2-2.1 0-2.4 1.2-.2 1.7-.4 2.4-.6 1.3-.4 1.6-1 1.7-2.7 0-1.2.3-11.7-.1-14.3s-2.3-5.6-6.6-5.6c-1.6 0-4.2.7-6.6 2.5-.2.1-.2.4-.2.6h0c.3 1.4.3 2.9.3 5.3v11.9c0 1.4.9 1.8 1.5 2 .4.1.7.2 1 .2.6.1 1.2.3 2.1.4.1.3.1 1.1 0 1.8-.1.4-.2.6-.3.6-2.2-.1-4.5-.1-7.8-.1-1 0-2.6 0-4.1.1-1.2 0-2.3.1-2.9.1-.1-.1-.2-.6-.2-1.3 0-.6.1-1 .2-1.2.3-.1.6-.1.9-.2.8-.1 1.4-.3 2.1-.4 1.1-.3 1.5-.9 1.6-2.3.2-3.2.4-12.5-.1-14.8-.8-3.7-2.9-5.6-6.3-5.6-2 0-4.5 1-6.6 2.5-.3.3-.6.9-.6 1.5V60l.1 13c.1.8.3 1.7 1.8 2 .3.1.9.2 1.5.3.4.1.8.1 1.2.2.1.4.1 2-.2 2.5-.6 0-1.4 0-2.3-.1-1.4-.1-3.1-.1-5-.1-2.3 0-3.9.1-5.2.1-1.1.6-1.9.6-2.6.6"/><path d="M133.8 51.4c-1.3 0-2.6.3-3.5 1-2.5 1.5-3.8 4.6-3.8 9.2 0 8.5 4.3 14.4 10.4 14.4 1.8 0 3.3-.5 4.5-1.6 1.9-1.5 2.9-4.6 2.9-9-.2-8.4-4.3-14-10.5-14m1.1 27.8c-11 0-14.9-8.1-14.9-15.6 0-5.3 2.2-9.4 6.4-12.3a18.95 18.95 0 0 1 9.9-2.9c8.4 0 14.3 6 14.3 14.7 0 5.9-2.3 10.5-6.8 13.4-2.1 1.3-5.8 2.7-8.9 2.7m111-27.8c-1.3 0-2.6.3-3.5 1-2.5 1.5-3.8 4.6-3.8 9.2 0 8.5 4.3 14.4 10.4 14.4 1.8 0 3.3-.5 4.5-1.6 1.9-1.5 2.9-4.6 2.9-9-.2-8.4-4.3-14-10.5-14m1.2 27.8c-11 0-14.9-8.1-14.9-15.6 0-5.3 2.2-9.4 6.4-12.3a18.95 18.95 0 0 1 9.9-2.9c8.4 0 14.3 6 14.3 14.7 0 5.9-2.3 10.5-6.8 13.4-2.2 1.3-5.9 2.7-8.9 2.7"/><path d="M208.8 51.1c-3.4 0-5.6 2.7-5.6 6.8 0 4.2 1.9 9.1 7.2 9.1.9 0 2.6-.4 3.4-1.3 1.2-1.1 2-3.5 2-6 .1-5.4-2.6-8.6-7-8.6m-.4 28.6c-1.3 0-2.2.4-2.8.7-2.7 1.7-3.9 3.4-3.9 5.4 0 1.9.7 3.4 2.3 4.7 1.9 1.6 4.4 2.4 7.8 2.4 6.6 0 9.5-3.5 9.5-7 0-2.4-1.2-4.1-3.7-5-2-.8-5.2-1.2-9.2-1.2m.4 16.9c-4 0-6.8-.8-9.2-2.7-2.4-1.8-3.4-4.5-3.4-6.4 0-.5.1-1.9 1.3-3.3.7-.8 2.3-2.2 6-4.8.1 0 .2-.2.2-.3 0-.2-.1-.3-.2-.3-3-1.2-4-3.1-4.2-4.1v-.2c-.1-.4-.2-.8.4-1.2.4-.3 1.1-.7 1.8-1.1 1.1-.6 2.3-1.3 2.9-1.9.1-.1.1-.3.1-.4 0-.2-.1-.3-.2-.3-4.5-1.5-6.8-4.9-6.8-9.9 0-3.3 1.5-6.3 4.2-8.1 1.8-1.4 6.3-3.1 9.3-3.1h.2c3 .1 4.7.7 7.1 1.6 1.3.5 2.5.7 4.2.7 2.5 0 3.6-.8 4.5-1.7.1.1.2.5.2 1.3.1.8-.2 2.1-.8 3-.5.7-1.7 1.2-2.8 1.2h-.3c-1.2-.1-1.7-.3-1.7-.3l-.3.1c-.1.1 0 .3 0 .5v.1c.1.6.4 2.3.4 2.8 0 5.3-2.1 7.7-4.4 9.4-2.2 1.6-4.7 2.6-7.6 2.9h0c-.1 0-.3 0-.9.1-.4 0-.8.1-.9.1h-.1c-.5.1-1.8.8-1.8 1.9 0 .9.6 2.1 3.4 2.3.6 0 1.2.1 1.8.1 3.7.3 8.3.6 10.4 1.3 3 1.1 4.8 3.7 4.8 7 0 4.8-3.4 9.3-9.1 12-2.6 1-5.4 1.7-8.5 1.7M192 76c-1.6-.2-2.8-.4-4.2-1.1-.2-.1-.5-.8-.5-1-.1-2.2-.1-8.8-.1-13 0-3.5-.6-6.5-2.1-8.7-1.8-2.5-4.2-3.9-7.5-3.9-2.9 0-6.7 2-9.8 4.6-.1.1-.6.5-.5-.2 0-.7.1-2.2.2-3.1s-.5-1.3-.5-1.3c-2.1 1-7.8 2.4-10 2.6-1.6.3-2 1.8-.3 2.3s2.9 1.1 3.8 1.7c.7.5.6 1.2.6 1.8.1 4.9.1 12.3-.1 16.4-.1 1.6-.5 2.2-1.7 2.5h.1c-.9.2-1.6.4-2.7.5-.4.4-.4 2.5 0 2.9.7 0 4.5-.2 7.5-.2 4.3 0 6.5.2 7.5.2.4-.5.6-2.5.3-2.9-1.2-.1-2.1-.2-3-.4-1.2-.3-1.5-.9-1.5-2.2-.1-3.4-.1-10.7-.1-15.6 0-1.4.4-2 .8-2.4 1.5-1.3 3.9-2.2 6-2.2s3.4.7 4.5 1.5c1.4 1.2 1.9 2.8 2.1 4.1.3 2.8.2 8.3.2 13 0 2.6-.2 3.3-1.2 3.6-.4.2-1.6.4-3 .6-.4.4-.3 2.5 0 2.9 1.9 0 4.1-.2 7.3-.2 4 0 6.6.2 7.6.2.4-.7.6-2.5.3-3m247.8 2.8l-5.2-13.7h-20.4L409 78.8h-4.8l18.6-45.6h3.6l18.1 45.6h-4.7zm-15.3-40.5l-8.9 23.3h17.7l-8.8-23.3zm29.2 34c0 1.7.3 3.7 2.5 3.7 1.5 0 3.1-1.1 4.3-1.9V78c-.8.6-2.5 1.4-5.1 1.4-1.1 0-3.9-.1-4.9-2.8-.4-1.1-.5-3.4-.5-5V51.3h-6.5v-3.2h6.5V35h3.7v13.1h6.8v3.2h-6.8v21zm11.9 6.5V33.3h3.9v45.6h-3.9zm37.3 0c-5.1 0-7.5-1.3-7.5-5.6-.7 2.3-4.2 6.3-10.9 6.3-6.5 0-9.7-4-9.7-8.4 0-6.1 5.2-8.3 15.4-10.6l5.2-1.2v-2.4c0-3-1.5-6.3-7.2-6.3-6.3 0-8.3 2.5-8.3 7.4l-4.2-.7c.8-6.3 5-10.1 12.1-10.1 5.4 0 11.3 1.6 11.3 9.3V70c0 4.1.1 5.7 3.9 5.7h.6v3h-.7zm-7.4-16.2l-1.9.5c-10.5 2.8-15 3.4-15 7.9 0 2.1 1.7 5.1 6.2 5.1 3.7 0 8.3-2.3 9.9-5.8.6-1.3.8-2.6.8-5.4v-2.3zm14.8 7.4c.5 2.1 2.8 6.1 8.6 6.1 5.9 0 7.9-3.3 7.9-6 0-2.6-1.5-4.5-6.6-5.6l-3.6-.8c-4.8-1-8-3.2-8-7.7 0-1.1.2-4.1 2.6-6.3 2.1-1.9 5.7-2.6 8.4-2.6.9 0 4.7 0 7.6 2 2.4 1.7 3.1 3.9 3.4 5l-3.6 1c-.7-3.6-4.4-4.6-7.5-4.6-6.3 0-7.1 3.3-7.1 5.2 0 3.6 3.8 4.5 6.5 5l3.2.6c5.4 1.1 8.5 4.2 8.5 9 0 3.5-2.8 9.2-11.5 9.2-2.6 0-9.1-.4-12.4-8.3l3.6-1.2z"/></g></svg>